<svg xmlns="http://www.w3.org/2000/svg" viewBox="0 0 512 512" width="512" height="512">
  <defs>
    <linearGradient id="brandGradient" x1="0%" y1="0%" x2="100%" y2="100%">
      <stop offset="0%" style="stop-color:#ff6b35;stop-opacity:1" />
      <stop offset="100%" style="stop-color:#ff8c42;stop-opacity:1" />
    </linearGradient>
  </defs>
  
  <!-- Background circle with gradient -->
  <circle cx="256" cy="256" r="240" fill="url(#brandGradient)"/>
  
  <!-- Letter B -->
  <path d="M160 128 L160 384 L280 384 Q336 384 336 328 Q336 288 304 272 Q336 256 336 216 Q336 160 280 160 L160 160 Z M208 208 L264 208 Q288 208 288 232 Q288 256 264 256 L208 256 Z M208 288 L272 288 Q304 288 304 320 Q304 336 272 336 L208 336 Z" fill="#ffffff"/>
</svg>